<svg width="180" height="37" viewBox="0 0 180 37" fill="none" xmlns="http://www.w3.org/2000/svg">
<g id="Cadeo Logo" clip-path="url(#clip0_1_3066)">
<path id="Vector" d="M71 36.9749V0.0396451C71.1179 0.0290424 71.2284 0.0101931 71.3395 0.0101931C75.9699 0.0101931 80.5983 -0.0169031 85.2281 0.0172613C93.3256 0.0773433 100.635 5.66853 102.793 13.6088C104.583 20.1943 102.992 26.0482 98.481 31.0162C94.8916 34.9686 90.3382 36.903 85.0636 36.9631C80.4928 37.015 75.9208 36.9749 71.3488 36.9749C71.2495 36.9749 71.1483 36.9749 71 36.9749ZM77.1237 30.7358C77.2541 30.744 77.341 30.7535 77.4266 30.7535C79.9671 30.7535 82.5076 30.7746 85.0475 30.7463C88.3557 30.7087 91.2214 29.5059 93.6223 27.1909C97.4128 23.5376 98.4823 17.8806 96.1274 13.2271C93.8811 8.79047 90.1762 6.4908 85.315 6.25639C82.6795 6.12916 80.0323 6.23048 77.3906 6.2293C77.3087 6.2293 77.2249 6.24461 77.1237 6.25403V30.7358Z" fill="#347FC8"/>
<path id="Vector_2" d="M18.7923 0.00461734V5.9775C14.6161 6.10945 11.1393 7.69866 8.55931 11.0762C6.77396 13.4135 5.96536 16.0819 6.07441 19.0507C6.29832 25.1496 11.5453 30.914 18.7819 30.9611V36.9906C12.3412 36.7596 7.0303 34.2397 3.36563 28.8382C-0.783963 22.7228 -1.08094 16.2021 2.38885 9.64844C5.79599 3.21254 12.7669 -0.122609 18.7935 0.0034453L18.7923 0.00461734Z" fill="#347FC8"/>
<path id="Vector_3" d="M137.216 30.8222V36.9906H110.984V0.00353051C119.724 0.00353051 128.463 0.00117808 137.204 0V6.1708H117.026V18.0435C117.168 17.8845 117.323 17.7231 117.491 17.5617C118.716 16.3836 120.076 15.7356 121.239 15.3752C122.224 15.0712 123.25 14.9286 124.279 14.9286H134.725V21.1148H124.693C124.693 21.1148 117.623 21.1254 117.027 30.6643C117.024 30.7162 117.021 30.7692 117.018 30.8222H137.217H137.216Z" fill="#347FC8"/>
<path id="Vector_4" d="M155.743 30.4609V30.6176H155.734C155.738 30.5646 155.74 30.5128 155.743 30.4609Z" fill="#347FC8"/>
<path id="Vector_5" d="M179.973 18.5478C179.984 28.9832 172.347 36.98 162.36 36.9906C152.415 37.0013 144.707 28.9679 144.688 18.5702C144.667 8.02156 152.35 -0.00941641 162.453 8.2866e-06C172.363 0.00943292 179.961 8.051 179.973 18.5478ZM174.126 18.6868C174.168 11.3638 169.166 5.93872 162.354 5.92458C155.649 5.91045 150.544 11.2978 150.52 18.4158C150.495 25.5574 155.534 31.0095 162.203 31.0578C168.951 31.1061 174.084 25.78 174.126 18.6868Z" fill="#347FC8"/>
<path id="Vector_6" d="M47.8193 0H41.7126L26.5156 36.9906H32.6235C33.113 35.4721 34.345 32.3631 37.3206 29.7007C37.7823 29.2872 39.8948 27.4481 43.2753 26.329C47.1209 25.0566 50.4863 25.4301 52.2659 25.7682L56.9781 36.9906H63.5209L47.8169 0H47.8193ZM44.846 20.23C41.8982 20.7331 39.7614 21.9995 38.5932 22.8195C40.6511 17.8468 42.708 12.8729 44.7659 7.90022L49.9422 20.23C48.723 20.0239 46.9411 19.8731 44.846 20.23Z" fill="#347FC8"/>
</g>
<defs>
<clipPath id="clip0_1_3066">
<rect width="180" height="37" fill="white"/>
</clipPath>
</defs>
</svg>
